<?xml version="1.0" standalone="no"?>
<!DOCTYPE svg PUBLIC "-//W3C//DTD SVG 20010904//EN"
 "http://www.w3.org/TR/2001/REC-SVG-20010904/DTD/svg10.dtd">
<svg version="1.0" xmlns="http://www.w3.org/2000/svg"
 width="619.000000pt" height="253.000000pt" viewBox="0 0 619.000000 253.000000"
 preserveAspectRatio="xMidYMid meet">

<g transform="translate(0.000000,253.000000) scale(0.100000,-0.100000)"
fill="#000000" stroke="none">
<path d="M877 2349 c-64 -55 -117 -102 -117 -105 0 -14 67 -104 78 -104 12 0
197 98 260 136 l22 15 -54 76 c-30 43 -58 79 -63 80 -4 2 -61 -42 -126 -98z
m141 60 c1 -8 -18 -30 -43 -48 -36 -26 -49 -31 -58 -22 -9 9 -2 22 31 52 43
40 64 46 70 18z m30 -41 c20 -20 13 -32 -35 -61 -77 -47 -104 -11 -31 42 47
35 49 36 66 19z m-141 -45 c5 -15 -43 -47 -57 -38 -8 5 -4 15 11 31 23 25 40
27 46 7z m183 -21 c0 -21 -91 -69 -109 -58 -15 10 -6 22 37 51 45 29 72 32 72
7z m-169 -53 c-28 -23 -40 -24 -48 -3 -4 11 2 23 18 35 21 16 26 16 39 3 13
-14 12 -17 -9 -35z m-88 24 c9 -9 -22 -43 -40 -43 -17 0 -17 10 4 32 17 19 26
22 36 11z m135 -41 c2 -6 -10 -18 -27 -26 -39 -21 -54 -1 -21 26 24 19 41 20
48 0z m-104 -1 c9 -14 -32 -44 -50 -37 -15 6 -15 8 1 26 19 21 40 26 49 11z
m26 -39 c0 -14 -23 -32 -42 -32 -23 0 -23 16 0 29 21 13 42 14 42 3z"/>
<path d="M638 2215 c-44 -30 -61 -56 -51 -82 9 -27 65 -103 75 -103 15 0 138
85 138 95 0 6 -16 34 -35 63 -42 61 -68 67 -127 27z m84 3 c20 -17 58 -73 58
-87 0 -12 -99 -81 -115 -81 -16 1 -65 76 -65 99 0 13 16 32 42 51 46 33 57 36
80 18z"/>
<path d="M439 2047 c-64 -34 -126 -69 -138 -77 l-21 -15 55 -83 c65 -96 43
-100 198 36 l107 92 -34 52 c-18 29 -37 53 -42 55 -5 1 -61 -26 -125 -60z
m131 33 c0 -14 -48 -35 -58 -26 -8 9 26 36 45 36 7 0 13 -5 13 -10z m20 -38
c0 -24 -39 -47 -54 -32 -8 9 -5 16 13 31 29 24 41 24 41 1z m-90 -2 c0 -14
-48 -43 -60 -35 -16 10 -12 21 13 33 28 14 47 15 47 2z m104 -51 c-18 -20 -44
-26 -44 -10 0 14 42 41 52 35 5 -3 2 -15 -8 -25z m-184 4 c-1 -20 -86 -77
-101 -68 -20 13 -7 35 34 59 50 30 67 32 67 9z m106 5 c7 -11 -29 -48 -47 -48
-20 0 -22 33 -4 46 23 17 41 18 51 2z m-101 -94 c-42 -36 -78 -41 -83 -12 -2
12 12 28 44 48 44 27 50 29 64 14 14 -14 11 -19 -25 -50z m125 53 c0 -8 -9
-22 -20 -32 -16 -15 -23 -16 -33 -6 -9 9 -7 16 13 31 30 23 40 25 40 7z m-64
-48 c10 -17 -71 -93 -90 -86 -26 10 -18 30 27 64 46 36 53 38 63 22z"/>
<path d="M746 2049 c-15 -12 -32 -33 -37 -47 -11 -28 -3 -62 13 -62 15 0 148
91 148 101 0 14 -37 29 -68 29 -16 0 -41 -10 -56 -21z m85 1 c22 0 5 -22 -43
-55 -60 -40 -68 -42 -68 -17 0 39 55 87 88 76 8 -2 18 -4 23 -4z"/>
<path d="M920 2024 c-26 -71 -34 -86 -62 -109 -36 -31 -101 -49 -145 -40 -20
3 -33 2 -33 -5 0 -16 108 -12 146 6 44 21 88 74 103 126 14 46 7 65 -9 22z"/>
<path d="M981 1966 c-16 -57 -74 -124 -125 -147 -26 -12 -65 -19 -104 -19 -44
0 -61 -3 -56 -11 10 -16 122 -6 164 16 57 28 109 85 130 142 23 61 23 63 12
63 -4 0 -14 -20 -21 -44z"/>
<path d="M5827 1980 c-127 -32 -197 -116 -197 -237 0 -103 44 -148 214 -218
58 -24 119 -53 136 -65 125 -89 94 -273 -56 -329 -140 -53 -292 5 -310 119 -6
34 -10 40 -30 40 -20 0 -24 -5 -24 -29 0 -182 306 -259 466 -118 76 66 105
187 65 270 -29 60 -70 90 -205 148 -126 56 -152 72 -183 119 -46 67 -19 176
55 225 76 50 198 56 272 13 39 -23 60 -48 76 -93 7 -20 19 -31 34 -33 21 -4
23 -1 17 37 -12 91 -94 150 -219 156 -40 3 -90 0 -111 -5z"/>
<path d="M2667 1973 c-4 -3 -7 -12 -7 -20 0 -10 28 -13 125 -13 108 0 125 -2
125 -16 0 -14 -104 -616 -130 -753 -15 -80 -14 -91 13 -91 23 0 25 8 81 338
32 185 66 378 76 427 l17 90 129 5 c112 4 129 7 132 23 3 16 -15 17 -276 17
-153 0 -282 -3 -285 -7z"/>
<path d="M4185 1968 c-2 -7 -13 -65 -24 -128 -11 -63 -43 -245 -71 -405 -28
-159 -54 -305 -57 -322 -5 -30 -3 -33 19 -33 28 0 28 2 74 275 9 55 21 105 26
111 5 8 63 13 161 16 168 4 209 16 280 77 74 66 116 215 83 296 -21 50 -41 72
-91 98 -35 19 -60 22 -217 25 -143 3 -179 1 -183 -10z m371 -54 c56 -29 87
-92 79 -159 -9 -70 -46 -147 -87 -178 -50 -39 -135 -57 -265 -57 -61 0 -114 4
-118 10 -8 12 56 381 69 399 17 22 271 11 322 -15z"/>
<path d="M3636 1938 c-13 -21 -141 -253 -372 -674 -52 -95 -94 -174 -94 -178
0 -3 11 -6 24 -6 21 0 34 17 87 115 l62 115 218 0 217 0 10 -47 c6 -27 16 -78
23 -115 12 -65 14 -68 41 -68 15 0 28 1 28 3 -1 15 -171 861 -176 868 -10 18
-53 9 -68 -13z m34 -60 c0 -2 23 -117 50 -256 28 -140 47 -258 44 -263 -3 -5
-91 -9 -195 -9 -178 0 -190 1 -187 18 7 43 287 538 288 510z"/>
<path d="M5146 1938 c-24 -39 -466 -847 -466 -853 0 -3 11 -5 24 -5 21 0 34
17 88 115 l63 115 217 0 c120 0 218 -3 219 -7 1 -5 11 -55 23 -113 20 -101 22
-105 49 -108 15 -2 27 -1 27 2 0 17 -170 858 -175 866 -11 18 -54 11 -69 -12z
m89 -331 c25 -132 43 -243 39 -248 -9 -14 -384 -12 -384 3 0 12 253 482 273
507 17 20 21 4 72 -262z"/>
<path d="M423 1609 c-62 -94 -59 -183 7 -256 38 -40 52 -84 32 -97 -5 -3 -32
7 -61 21 -37 19 -74 27 -128 31 l-75 5 7 -24 c3 -13 20 -52 37 -87 38 -81 85
-114 168 -120 49 -4 59 -8 65 -26 l6 -21 16 23 c11 16 25 22 54 22 47 0 87 15
118 43 43 40 96 187 72 201 -12 8 -95 -12 -136 -32 -16 -8 -42 -26 -57 -39
-37 -35 -58 -25 -58 27 0 32 7 48 35 79 32 35 35 43 35 102 0 57 -4 69 -41
126 -23 35 -48 63 -55 63 -8 0 -26 -18 -41 -41z"/>
<path d="M535 1030 c-153 -12 -355 -60 -355 -83 1 -29 15 -34 90 -26 187 19
398 2 554 -46 83 -25 83 -26 81 65 -1 44 -5 84 -9 87 -10 11 -246 12 -361 3z"/>
<path d="M1520 960 c-101 -35 -364 -155 -428 -196 -29 -19 -25 -24 82 -111
l79 -64 81 79 c45 43 143 124 219 180 125 93 155 122 127 122 -5 0 -10 7 -10
15 0 22 -22 18 -150 -25z"/>
<path d="M1738 854 c-118 -81 -242 -181 -323 -263 l-69 -71 44 -46 c44 -45
135 -106 177 -118 19 -6 26 2 58 71 39 79 74 133 155 238 61 79 67 92 71 145
4 74 0 100 -16 100 -8 0 -52 -25 -97 -56z"/>
<path d="M291 845 c-35 -8 -66 -16 -68 -19 -8 -8 65 -156 112 -226 174 -262
437 -414 775 -450 97 -11 303 -3 279 10 -8 4 -68 10 -134 13 -261 13 -458 96
-643 271 -65 62 -152 165 -152 181 0 16 25 -3 106 -81 98 -95 165 -144 264
-194 166 -84 359 -122 535 -105 l75 7 -21 29 c-11 16 -52 55 -91 86 -40 32
-112 96 -162 142 -213 197 -335 272 -521 323 -95 25 -271 32 -354 13z"/>
<path d="M3785 821 c-14 -6 -8 -8 23 -7 35 1 48 -4 63 -23 11 -13 22 -22 24
-19 9 8 -39 46 -65 52 -14 3 -34 1 -45 -3z"/>
<path d="M2920 800 c-8 -15 -8 -20 -1 -16 14 9 31 -33 34 -85 1 -21 6 -41 10
-45 4 -4 7 -16 7 -27 0 -11 2 -18 6 -15 6 7 -27 190 -37 202 -4 4 -13 -2 -19
-14z"/>
<path d="M3061 804 c0 -11 3 -14 6 -6 3 7 2 16 -1 19 -3 4 -6 -2 -5 -13z"/>
<path d="M3955 770 c-4 -28 -5 -54 -2 -56 3 -3 8 18 12 46 4 28 5 54 2 56 -3
3 -8 -18 -12 -46z"/>
<path d="M5067 806 c-4 -9 -2 -16 3 -16 5 0 14 -15 20 -32 l10 -33 -5 39 c-5
45 -19 65 -28 42z"/>
<path d="M2008 761 c-95 -105 -294 -431 -263 -431 2 0 30 11 61 25 75 33 172
103 224 162 l41 47 -2 106 c-3 150 -5 153 -61 91z"/>
<path d="M5385 794 c-4 -10 -9 -44 -10 -74 l-3 -55 10 45 c6 25 14 48 19 51 6
3 6 15 1 29 -8 22 -9 22 -17 4z"/>
<path d="M3223 785 c-8 -9 -9 -22 -3 -41 7 -24 8 -25 9 -7 1 12 6 23 13 25 7
3 8 10 2 20 -7 13 -11 14 -21 3z"/>
<path d="M4604 782 c-5 -9 -7 -33 -3 -52 5 -28 7 -30 8 -9 0 14 6 30 12 36 7
7 8 17 2 27 -8 14 -10 14 -19 -2z"/>
<path d="M3052 760 c0 -14 2 -19 5 -12 2 6 2 18 0 25 -3 6 -5 1 -5 -13z"/>
<path d="M3400 762 c27 -13 36 -25 41 -52 l6 -35 2 32 c1 33 -35 73 -68 73 -9
0 0 -8 19 -18z"/>
<path d="M4168 765 c26 -12 32 -20 33 -47 0 -28 2 -30 9 -13 5 11 9 25 9 30 1
13 -51 45 -71 45 -7 -1 2 -7 20 -15z"/>
<path d="M4295 768 c11 -6 23 -16 27 -22 5 -8 8 -7 8 1 0 7 -9 17 -19 23 -27
14 -41 12 -16 -2z"/>
<path d="M4470 770 c8 -5 20 -10 25 -10 6 0 3 5 -5 10 -8 5 -19 10 -25 10 -5
0 -3 -5 5 -10z"/>
<path d="M4808 765 c24 -11 32 -20 32 -40 0 -24 -2 -25 -66 -25 -56 0 -65 2
-60 16 3 8 2 13 -3 10 -16 -10 -21 -54 -11 -82 6 -15 13 -24 16 -21 3 3 1 14
-4 24 -18 34 -4 43 69 43 l69 0 0 29 c0 31 -30 61 -60 61 -8 -1 0 -7 18 -15z"/>
<path d="M5240 770 c-18 -12 -2 -12 25 0 13 6 15 9 5 9 -8 0 -22 -4 -30 -9z"/>
<path d="M5647 765 c35 -15 49 -48 38 -87 -5 -18 -4 -20 4 -8 18 25 12 60 -14
85 -13 14 -32 25 -42 25 -11 -1 -5 -6 14 -15z"/>
<path d="M5847 764 c12 -11 24 -35 26 -54 4 -34 5 -34 3 4 -1 30 -7 42 -26 54
l-25 14 22 -18z"/>
<path d="M3517 763 c-2 -5 -7 -30 -11 -58 l-6 -50 14 41 c7 23 16 46 20 52 3
6 2 13 -3 16 -5 4 -12 3 -14 -1z"/>
<path d="M4021 754 c0 -11 3 -14 6 -6 3 7 2 16 -1 19 -3 4 -6 -2 -5 -13z"/>
<path d="M4080 753 c0 -10 -2 -36 -5 -58 l-5 -40 11 35 c20 68 21 80 10 80 -6
0 -11 -8 -11 -17z"/>
<path d="M4531 756 c-7 -8 -10 -24 -6 -36 4 -11 -1 -34 -9 -52 -11 -21 -13
-35 -6 -42 11 -11 14 -4 29 78 12 65 10 74 -8 52z"/>
<path d="M5308 752 c9 -10 19 -17 21 -16 6 5 -20 34 -30 34 -5 0 -1 -8 9 -18z"/>
<path d="M5492 750 c0 -14 2 -19 5 -12 2 6 2 18 0 25 -3 6 -5 1 -5 -13z"/>
<path d="M5746 748 c-3 -13 -6 -34 -5 -48 0 -20 3 -17 14 15 8 22 11 43 6 48
-5 5 -11 -2 -15 -15z"/>
<path d="M2865 700 c-18 -36 -21 -48 -10 -44 8 4 15 13 15 21 0 8 7 27 15 43
9 17 13 30 10 30 -2 0 -16 -22 -30 -50z"/>
<path d="M3696 734 c-24 -63 17 -125 81 -123 l38 2 -43 6 c-56 10 -67 23 -67
82 0 27 -1 49 -1 49 -1 0 -5 -7 -8 -16z"/>
<path d="M4390 735 c-7 -9 -11 -17 -9 -20 3 -2 10 5 17 15 14 24 10 26 -8 5z"/>
<path d="M5011 704 c-24 -40 -26 -47 -10 -42 6 2 10 7 10 11 -1 4 6 21 14 37
22 42 11 38 -14 -6z"/>
<path d="M5541 707 c-11 -33 1 -99 15 -84 3 3 0 15 -6 27 -8 16 -9 30 -1 52 6
17 9 33 7 35 -2 3 -9 -11 -15 -30z"/>
<path d="M3042 705 c0 -16 2 -22 5 -12 2 9 2 23 0 30 -3 6 -5 -1 -5 -18z"/>
<path d="M4003 675 c-5 -30 -6 -55 -3 -55 8 0 24 100 17 106 -2 2 -8 -21 -14
-51z"/>
<path d="M5099 700 c-5 -26 11 -80 22 -80 4 0 3 19 -2 43 -14 61 -16 65 -20
37z"/>
<path d="M5176 704 c-10 -26 -7 -49 10 -70 14 -18 15 -18 4 5 -7 13 -9 36 -6
52 6 31 2 39 -8 13z"/>
<path d="M5482 695 c0 -16 2 -22 5 -12 2 9 2 23 0 30 -3 6 -5 -1 -5 -18z"/>
<path d="M3292 679 c-2 -34 20 -69 44 -69 4 0 -1 7 -13 15 -14 10 -23 29 -26
53 l-4 37 -1 -36z"/>
<path d="M3211 685 c-1 -11 -4 -31 -6 -45 l-6 -25 11 25 c6 13 9 33 7 45 -4
19 -4 19 -6 0z"/>
<path d="M3942 680 c0 -14 2 -19 5 -12 2 6 2 18 0 25 -3 6 -5 1 -5 -13z"/>
<path d="M4322 680 c0 -14 2 -19 5 -12 2 6 2 18 0 25 -3 6 -5 1 -5 -13z"/>
<path d="M4371 680 c-1 -32 25 -70 47 -69 13 0 11 3 -5 9 -13 5 -25 21 -29 37
-9 45 -12 50 -13 23z"/>
<path d="M4594 650 c1 -26 6 -35 19 -36 11 -1 12 0 3 3 -8 2 -17 19 -19 36 -4
31 -4 31 -3 -3z"/>
<path d="M3032 645 c0 -16 2 -22 5 -12 2 9 2 23 0 30 -3 6 -5 -1 -5 -18z"/>
<path d="M3421 647 c-13 -21 -12 -21 5 -5 10 10 16 20 13 22 -3 3 -11 -5 -18
-17z"/>
<path d="M4192 650 c0 -14 2 -19 5 -12 2 6 2 18 0 25 -3 6 -5 1 -5 -13z"/>
<path d="M5732 645 c0 -16 2 -22 5 -12 2 9 2 23 0 30 -3 6 -5 -1 -5 -18z"/>
<path d="M5862 645 c0 -16 2 -22 5 -12 2 9 2 23 0 30 -3 6 -5 -1 -5 -18z"/>
<path d="M5361 653 c-2 -22 11 -43 27 -43 14 0 14 1 0 13 -9 6 -18 19 -21 27
-3 8 -6 10 -6 3z"/>
<path d="M5472 640 c0 -14 2 -19 5 -12 2 6 2 18 0 25 -3 6 -5 1 -5 -13z"/>
<path d="M3931 634 c0 -11 3 -14 6 -6 3 7 2 16 -1 19 -3 4 -6 -2 -5 -13z"/>
<path d="M4311 634 c0 -11 3 -14 6 -6 3 7 2 16 -1 19 -3 4 -6 -2 -5 -13z"/>
<path d="M4975 639 c-4 -6 -5 -12 -2 -15 2 -3 7 2 10 11 7 17 1 20 -8 4z"/>
</g>
</svg>
